<?xml version="1.0" encoding="UTF-8"?>
<svg xmlns="http://www.w3.org/2000/svg" viewBox="0 0 1200 900" width="1200" height="900" preserveAspectRatio="xMidYMid slice">
  <defs>
    <!-- ============================================
         BACKGROUND - Atmospheric & Cinematic
    ============================================ -->
    <radialGradient id="bgRadial" cx="50%" cy="40%" r="80%">
      <stop offset="0%" stop-color="#1e4ba8"/>
      <stop offset="40%" stop-color="#0f2167"/>
      <stop offset="100%" stop-color="#050d35"/>
    </radialGradient>

    <radialGradient id="spotlightTop" cx="50%" cy="0%" r="60%">
      <stop offset="0%" stop-color="#5fa8ff" stop-opacity="0.5"/>
      <stop offset="50%" stop-color="#1565c0" stop-opacity="0.15"/>
      <stop offset="100%" stop-color="#1565c0" stop-opacity="0"/>
    </radialGradient>

    <radialGradient id="orangeGlow" cx="50%" cy="50%" r="50%">
      <stop offset="0%" stop-color="#ff9947" stop-opacity="0.65"/>
      <stop offset="50%" stop-color="#f47920" stop-opacity="0.2"/>
      <stop offset="100%" stop-color="#f47920" stop-opacity="0"/>
    </radialGradient>

    <radialGradient id="blueGlow" cx="50%" cy="50%" r="50%">
      <stop offset="0%" stop-color="#5fa8ff" stop-opacity="0.55"/>
      <stop offset="100%" stop-color="#1565c0" stop-opacity="0"/>
    </radialGradient>

    <linearGradient id="floor" x1="0%" y1="0%" x2="0%" y2="100%">
      <stop offset="0%" stop-color="#1565c0" stop-opacity="0.2"/>
      <stop offset="100%" stop-color="#050d35" stop-opacity="0"/>
    </linearGradient>

    <!-- PHONE -->
    <linearGradient id="phoneFrame" x1="0%" y1="0%" x2="100%" y2="0%">
      <stop offset="0%" stop-color="#0a0e1a"/>
      <stop offset="3%" stop-color="#3a4258"/>
      <stop offset="8%" stop-color="#1a1f2e"/>
      <stop offset="50%" stop-color="#0a0e1a"/>
      <stop offset="92%" stop-color="#1a1f2e"/>
      <stop offset="97%" stop-color="#3a4258"/>
      <stop offset="100%" stop-color="#0a0e1a"/>
    </linearGradient>

    <linearGradient id="phoneFrameTop" x1="0%" y1="0%" x2="0%" y2="100%">
      <stop offset="0%" stop-color="#4a5268"/>
      <stop offset="50%" stop-color="#2a3142"/>
      <stop offset="100%" stop-color="#0a0e1a"/>
    </linearGradient>

    <linearGradient id="phoneScreenBg" x1="0%" y1="0%" x2="100%" y2="100%">
      <stop offset="0%" stop-color="#1976d2"/>
      <stop offset="40%" stop-color="#1565c0"/>
      <stop offset="100%" stop-color="#0a237a"/>
    </linearGradient>

    <linearGradient id="phoneGlassReflection" x1="0%" y1="0%" x2="100%" y2="100%">
      <stop offset="0%" stop-color="#ffffff" stop-opacity="0"/>
      <stop offset="20%" stop-color="#ffffff" stop-opacity="0.3"/>
      <stop offset="40%" stop-color="#ffffff" stop-opacity="0.05"/>
      <stop offset="100%" stop-color="#ffffff" stop-opacity="0"/>
    </linearGradient>

    <linearGradient id="phoneEdgeShine" x1="0%" y1="0%" x2="100%" y2="0%">
      <stop offset="0%" stop-color="#ffffff" stop-opacity="0"/>
      <stop offset="50%" stop-color="#ffffff" stop-opacity="0.4"/>
      <stop offset="100%" stop-color="#ffffff" stop-opacity="0"/>
    </linearGradient>

    <!-- WATCH -->
    <linearGradient id="watchCase" x1="0%" y1="0%" x2="100%" y2="100%">
      <stop offset="0%" stop-color="#ff9947"/>
      <stop offset="50%" stop-color="#f47920"/>
      <stop offset="100%" stop-color="#c95800"/>
    </linearGradient>

    <linearGradient id="watchCaseTop" x1="0%" y1="0%" x2="0%" y2="100%">
      <stop offset="0%" stop-color="#ffb380"/>
      <stop offset="100%" stop-color="#f47920"/>
    </linearGradient>

    <linearGradient id="watchBand" x1="0%" y1="0%" x2="0%" y2="100%">
      <stop offset="0%" stop-color="#c95800"/>
      <stop offset="100%" stop-color="#8a3d00"/>
    </linearGradient>

    <radialGradient id="watchScreen" cx="50%" cy="40%" r="60%">
      <stop offset="0%" stop-color="#1a1f2e"/>
      <stop offset="100%" stop-color="#000000"/>
    </radialGradient>

    <!-- HEADPHONES -->
    <linearGradient id="headBandGrad" x1="0%" y1="0%" x2="100%" y2="100%">
      <stop offset="0%" stop-color="#3a4a6e"/>
      <stop offset="50%" stop-color="#1565c0"/>
      <stop offset="100%" stop-color="#0a237a"/>
    </linearGradient>

    <radialGradient id="earCupOuter" cx="40%" cy="35%" r="70%">
      <stop offset="0%" stop-color="#3a4258"/>
      <stop offset="50%" stop-color="#1a1f2e"/>
      <stop offset="100%" stop-color="#000000"/>
    </radialGradient>

    <radialGradient id="earCupInner" cx="50%" cy="50%" r="50%">
      <stop offset="0%" stop-color="#2a3142"/>
      <stop offset="80%" stop-color="#0a0e1a"/>
      <stop offset="100%" stop-color="#000000"/>
    </radialGradient>

    <!-- FILTERS -->
    <filter id="cinematicShadow" x="-50%" y="-50%" width="200%" height="200%">
      <feGaussianBlur in="SourceAlpha" stdDeviation="22"/>
      <feOffset dx="0" dy="30" result="shadow"/>
      <feFlood flood-color="#000000" flood-opacity="0.55"/>
      <feComposite in2="shadow" operator="in"/>
      <feMerge>
        <feMergeNode/>
        <feMergeNode in="SourceGraphic"/>
      </feMerge>
    </filter>

    <filter id="softGlow" x="-50%" y="-50%" width="200%" height="200%">
      <feGaussianBlur stdDeviation="6" result="blur"/>
      <feMerge>
        <feMergeNode in="blur"/>
        <feMergeNode in="SourceGraphic"/>
      </feMerge>
    </filter>

    <filter id="screenGlow" x="-20%" y="-20%" width="140%" height="140%">
      <feGaussianBlur stdDeviation="12" result="blur"/>
      <feFlood flood-color="#1565c0" flood-opacity="0.6"/>
      <feComposite in2="blur" operator="in" result="glow"/>
      <feMerge>
        <feMergeNode in="glow"/>
        <feMergeNode in="SourceGraphic"/>
      </feMerge>
    </filter>

    <pattern id="dotGrid" x="0" y="0" width="50" height="50" patternUnits="userSpaceOnUse">
      <circle cx="2" cy="2" r="1" fill="#5fa8ff" fill-opacity="0.18"/>
    </pattern>

    <radialGradient id="particle" cx="50%" cy="50%" r="50%">
      <stop offset="0%" stop-color="#ffffff" stop-opacity="0.9"/>
      <stop offset="100%" stop-color="#ffffff" stop-opacity="0"/>
    </radialGradient>

    <radialGradient id="orangeParticle" cx="50%" cy="50%" r="50%">
      <stop offset="0%" stop-color="#ff9947" stop-opacity="1"/>
      <stop offset="100%" stop-color="#f47920" stop-opacity="0"/>
    </radialGradient>

    <radialGradient id="vignette" cx="50%" cy="50%" r="80%">
      <stop offset="55%" stop-color="#000000" stop-opacity="0"/>
      <stop offset="100%" stop-color="#000000" stop-opacity="0.5"/>
    </radialGradient>
  </defs>

  <!-- ====================== BACKGROUND LAYERS ====================== -->
  <rect width="1200" height="900" fill="url(#bgRadial)"/>
  <rect width="1200" height="900" fill="url(#dotGrid)" opacity="0.5"/>
  <rect width="1200" height="700" fill="url(#spotlightTop)"/>

  <!-- Atmospheric glows -->
  <ellipse cx="950" cy="280" rx="380" ry="320" fill="url(#orangeGlow)" opacity="0.8"/>
  <ellipse cx="240" cy="400" rx="350" ry="380" fill="url(#blueGlow)" opacity="0.85"/>
  <ellipse cx="600" cy="180" rx="500" ry="240" fill="url(#blueGlow)" opacity="0.4"/>

  <!-- Floor reflection -->
  <rect x="0" y="600" width="1200" height="300" fill="url(#floor)"/>

  <!-- Decorative concentric arcs -->
  <g opacity="0.18" stroke="#5fa8ff" stroke-width="1.5" fill="none">
    <circle cx="600" cy="450" r="600"/>
    <circle cx="600" cy="450" r="480"/>
    <circle cx="600" cy="450" r="360"/>
  </g>

  <!-- Particles -->
  <g opacity="0.7">
    <circle cx="120" cy="120" r="3" fill="url(#particle)"/>
    <circle cx="220" cy="220" r="2" fill="url(#particle)"/>
    <circle cx="100" cy="380" r="2.5" fill="url(#particle)"/>
    <circle cx="180" cy="600" r="2" fill="url(#particle)"/>
    <circle cx="320" cy="780" r="3" fill="url(#particle)"/>
    <circle cx="950" cy="140" r="2.5" fill="url(#particle)"/>
    <circle cx="1080" cy="280" r="2" fill="url(#particle)"/>
    <circle cx="1020" cy="500" r="3" fill="url(#particle)"/>
    <circle cx="1100" cy="680" r="2.5" fill="url(#particle)"/>
    <circle cx="940" cy="800" r="2" fill="url(#particle)"/>
    <circle cx="500" cy="140" r="2" fill="url(#orangeParticle)"/>
    <circle cx="720" cy="180" r="3" fill="url(#orangeParticle)"/>
    <circle cx="380" cy="780" r="2.5" fill="url(#orangeParticle)"/>
    <circle cx="820" cy="820" r="2" fill="url(#orangeParticle)"/>
  </g>

  <!-- Light streaks -->
  <g opacity="0.35">
    <line x1="60" y1="180" x2="120" y2="210" stroke="#5fa8ff" stroke-width="2" stroke-linecap="round"/>
    <line x1="1090" y1="430" x2="1140" y2="460" stroke="#ff9947" stroke-width="2" stroke-linecap="round"/>
    <line x1="1000" y1="730" x2="1050" y2="755" stroke="#5fa8ff" stroke-width="2" stroke-linecap="round"/>
  </g>

  <!-- ====================== PEDESTAL ====================== -->
  <ellipse cx="600" cy="800" rx="450" ry="35" fill="#000000" opacity="0.5"/>
  <ellipse cx="600" cy="795" rx="400" ry="22" fill="#1565c0" opacity="0.18"/>

  <!-- ====================== HEADPHONES (Left) ====================== -->
  <g transform="translate(80, 320) rotate(-8)">
    <ellipse cx="155" cy="320" rx="160" ry="18" fill="#000000" opacity="0.55"/>

    <g filter="url(#cinematicShadow)">
      <path d="M 20 120 Q 155 -15 290 120" fill="none" stroke="url(#headBandGrad)" stroke-width="32" stroke-linecap="round"/>
      <path d="M 20 120 Q 155 -10 290 120" fill="none" stroke="#5fa8ff" stroke-width="3" stroke-linecap="round" opacity="0.4"/>
      <path d="M 38 102 Q 155 5 272 102" fill="none" stroke="#0a237a" stroke-width="18" stroke-linecap="round" opacity="0.5"/>
      <path d="M 38 100 Q 155 8 272 100" fill="none" stroke="#3a4a6e" stroke-width="2" stroke-dasharray="4 6" opacity="0.6"/>
    </g>

    <g filter="url(#cinematicShadow)">
      <ellipse cx="20" cy="160" rx="58" ry="72" fill="url(#earCupOuter)"/>
      <ellipse cx="20" cy="160" rx="51" ry="65" fill="#0a0e1a"/>
      <ellipse cx="20" cy="160" rx="44" ry="58" fill="url(#earCupInner)"/>
      <circle cx="20" cy="160" r="20" fill="#1a1f2e"/>
      <circle cx="20" cy="160" r="16" fill="none" stroke="#3a4a6e" stroke-width="1" opacity="0.6"/>
      <circle cx="20" cy="160" r="9" fill="url(#watchCase)"/>
      <circle cx="20" cy="160" r="5" fill="#0a0e1a"/>
      <ellipse cx="6" cy="128" rx="5" ry="13" fill="#ffffff" opacity="0.25"/>
      <ellipse cx="38" cy="138" rx="3" ry="7" fill="#ffffff" opacity="0.15"/>
    </g>

    <g filter="url(#cinematicShadow)">
      <ellipse cx="290" cy="160" rx="58" ry="72" fill="url(#earCupOuter)"/>
      <ellipse cx="290" cy="160" rx="51" ry="65" fill="#0a0e1a"/>
      <ellipse cx="290" cy="160" rx="44" ry="58" fill="url(#earCupInner)"/>
      <circle cx="290" cy="160" r="20" fill="#1a1f2e"/>
      <circle cx="290" cy="160" r="16" fill="none" stroke="#3a4a6e" stroke-width="1" opacity="0.6"/>
      <circle cx="290" cy="160" r="9" fill="url(#watchCase)"/>
      <circle cx="290" cy="160" r="5" fill="#0a0e1a"/>
      <ellipse cx="276" cy="128" rx="5" ry="13" fill="#ffffff" opacity="0.25"/>
      <ellipse cx="308" cy="138" rx="3" ry="7" fill="#ffffff" opacity="0.15"/>
    </g>

    <rect x="13" y="98" width="14" height="18" rx="3" fill="#1a1f2e"/>
    <rect x="283" y="98" width="14" height="18" rx="3" fill="#1a1f2e"/>
    <circle cx="20" cy="106" r="3" fill="#0a0e1a"/>
    <circle cx="290" cy="106" r="3" fill="#0a0e1a"/>
  </g>

  <!-- ====================== HERO PHONE (Center) ====================== -->
  <g transform="translate(450, 130)">
    <ellipse cx="150" cy="700" rx="135" ry="14" fill="#000000" opacity="0.75"/>
    <ellipse cx="150" cy="702" rx="95" ry="8" fill="#000000" opacity="0.55"/>

    <g filter="url(#cinematicShadow)">
      <rect x="0" y="0" width="300" height="680" rx="52" fill="url(#phoneFrameTop)"/>
      <rect x="6" y="6" width="288" height="668" rx="48" fill="url(#phoneFrame)"/>
      <rect x="13" y="13" width="274" height="654" rx="42" fill="#000000"/>
    </g>

    <g filter="url(#screenGlow)">
      <rect x="19" y="19" width="262" height="642" rx="38" fill="url(#phoneScreenBg)"/>
    </g>

    <!-- Dynamic Island -->
    <rect x="112" y="36" width="76" height="26" rx="13" fill="#000000"/>
    <circle cx="173" cy="49" r="4.5" fill="#1a1f2e"/>
    <circle cx="173" cy="49" r="2" fill="#3a4a6e"/>

    <!-- Status bar -->
    <text x="40" y="52" font-family="Arial, sans-serif" font-size="13" font-weight="700" fill="#ffffff">9:41</text>
    <g transform="translate(228, 44)">
      <rect x="0" y="6" width="2.5" height="3" fill="#ffffff"/>
      <rect x="4" y="4" width="2.5" height="5" fill="#ffffff"/>
      <rect x="8" y="2" width="2.5" height="7" fill="#ffffff"/>
      <rect x="12" y="0" width="2.5" height="9" fill="#ffffff"/>
    </g>
    <path d="M 248 47 Q 253 42 258 47 M 250 50 Q 253 48 256 50" stroke="#ffffff" stroke-width="1.2" fill="none" stroke-linecap="round"/>
    <rect x="261" y="43" width="18" height="9" rx="2" fill="none" stroke="#ffffff" stroke-width="1"/>
    <rect x="279" y="45" width="1.5" height="5" fill="#ffffff"/>
    <rect x="263" y="45" width="14" height="5" rx="1" fill="#ffffff"/>

    <!-- Header card -->
    <g transform="translate(36, 96)">
      <rect x="0" y="0" width="226" height="56" rx="15" fill="#ffffff" fill-opacity="0.12"/>
      <rect x="0" y="0" width="226" height="56" rx="15" fill="none" stroke="#ffffff" stroke-opacity="0.2"/>
      <circle cx="28" cy="28" r="17" fill="url(#watchCase)"/>
      <circle cx="28" cy="28" r="17" fill="none" stroke="#ffffff" stroke-opacity="0.3" stroke-width="2"/>
      <rect x="56" y="17" width="115" height="6" rx="3" fill="#ffffff" opacity="0.9"/>
      <rect x="56" y="30" width="76" height="4" rx="2" fill="#ffffff" opacity="0.5"/>
      <circle cx="205" cy="20" r="8" fill="#f47920"/>
      <text x="205" y="24" text-anchor="middle" font-family="Arial" font-size="10" font-weight="900" fill="#ffffff">3</text>
    </g>

    <!-- Featured Product Card -->
    <g transform="translate(36, 170)" filter="url(#softGlow)">
      <rect x="0" y="0" width="226" height="180" rx="18" fill="#ffffff" fill-opacity="0.18"/>
      <rect x="0" y="0" width="226" height="180" rx="18" fill="none" stroke="#ffffff" stroke-opacity="0.3"/>

      <!-- Premium badge -->
      <rect x="13" y="13" width="58" height="22" rx="11" fill="url(#watchCase)"/>
      <polygon points="20,24 22,28 26,28 23,31 24,35 20,32 16,35 17,31 14,28 18,28" fill="#ffffff"/>
      <rect x="30" y="21" width="34" height="6" rx="2" fill="#ffffff" opacity="0.95"/>

      <!-- Product image area -->
      <rect x="13" y="42" width="200" height="92" rx="12" fill="#ffffff" fill-opacity="0.95"/>

      <!-- Mini phone -->
      <g transform="translate(76, 52)">
        <rect x="0" y="0" width="74" height="74" rx="13" fill="#1a1f2e"/>
        <rect x="3" y="3" width="68" height="68" rx="10" fill="url(#phoneScreenBg)"/>
        <rect x="29" y="6" width="16" height="6" rx="3" fill="#000000"/>
        <rect x="9" y="20" width="13" height="13" rx="3" fill="#ffffff" opacity="0.9"/>
        <rect x="26" y="20" width="13" height="13" rx="3" fill="#f47920"/>
        <rect x="43" y="20" width="13" height="13" rx="3" fill="#ffffff" opacity="0.7"/>
        <rect x="9" y="37" width="13" height="13" rx="3" fill="#ffffff" opacity="0.7"/>
        <rect x="26" y="37" width="13" height="13" rx="3" fill="#ffffff" opacity="0.9"/>
        <rect x="43" y="37" width="13" height="13" rx="3" fill="#5fa8ff"/>
        <rect x="18" y="56" width="38" height="9" rx="4" fill="#ffffff" opacity="0.3"/>
      </g>

      <!-- Price -->
      <text x="13" y="160" font-family="Arial" font-size="22" font-weight="900" fill="#ffffff">$1,299</text>
      <text x="86" y="160" font-family="Arial" font-size="12" font-weight="600" fill="#ffffff" opacity="0.5" text-decoration="line-through">$1,499</text>

      <!-- Buy button -->
      <rect x="148" y="146" width="64" height="22" rx="11" fill="#f47920"/>
      <path d="M 162 157 L 198 157 M 192 152 L 198 157 L 192 162" stroke="#ffffff" stroke-width="1.8" stroke-linecap="round" stroke-linejoin="round" fill="none"/>
    </g>

    <!-- Categories grid -->
    <g transform="translate(36, 370)">
      <rect x="0" y="0" width="90" height="6" rx="3" fill="#ffffff" opacity="0.9"/>
      <rect x="186" y="0" width="40" height="6" rx="3" fill="#f47920"/>

      <g transform="translate(0, 16)">
        <rect x="0" y="0" width="68" height="76" rx="14" fill="#ffffff" fill-opacity="0.15"/>
        <rect x="0" y="0" width="68" height="76" rx="14" fill="none" stroke="#ffffff" stroke-opacity="0.2"/>
        <g transform="translate(26, 14)">
          <rect x="0" y="0" width="16" height="26" rx="3" fill="#ffffff"/>
          <rect x="2" y="2" width="12" height="20" rx="1" fill="url(#watchCase)"/>
          <circle cx="8" cy="24" r="1" fill="#0a237a"/>
        </g>
        <rect x="14" y="54" width="40" height="4" rx="2" fill="#ffffff" opacity="0.6"/>
        <rect x="20" y="62" width="28" height="3" rx="1.5" fill="#ffffff" opacity="0.3"/>

        <rect x="79" y="0" width="68" height="76" rx="14" fill="url(#watchCase)" fill-opacity="0.25"/>
        <rect x="79" y="0" width="68" height="76" rx="14" fill="none" stroke="url(#watchCase)" stroke-opacity="0.5"/>
        <g transform="translate(95, 22)">
          <rect x="0" y="0" width="36" height="22" rx="2" fill="#ffffff"/>
          <rect x="2" y="2" width="32" height="18" rx="1" fill="#1565c0"/>
          <rect x="-3" y="22" width="42" height="2" rx="1" fill="#ffffff"/>
        </g>
        <rect x="93" y="54" width="40" height="4" rx="2" fill="#ffffff" opacity="0.9"/>
        <rect x="99" y="62" width="28" height="3" rx="1.5" fill="#ffffff" opacity="0.5"/>

        <rect x="158" y="0" width="68" height="76" rx="14" fill="#ffffff" fill-opacity="0.15"/>
        <rect x="158" y="0" width="68" height="76" rx="14" fill="none" stroke="#ffffff" stroke-opacity="0.2"/>
        <g transform="translate(180, 16)">
          <path d="M 4 14 Q 12 4 20 14" fill="none" stroke="#ffffff" stroke-width="2.5" stroke-linecap="round"/>
          <ellipse cx="4" cy="20" rx="4" ry="6" fill="#ffffff"/>
          <ellipse cx="20" cy="20" rx="4" ry="6" fill="#ffffff"/>
          <circle cx="4" cy="20" r="1.5" fill="#f47920"/>
          <circle cx="20" cy="20" r="1.5" fill="#f47920"/>
        </g>
        <rect x="172" y="54" width="40" height="4" rx="2" fill="#ffffff" opacity="0.6"/>
        <rect x="178" y="62" width="28" height="3" rx="1.5" fill="#ffffff" opacity="0.3"/>
      </g>

      <g transform="translate(0, 104)">
        <rect x="0" y="0" width="68" height="76" rx="14" fill="#ffffff" fill-opacity="0.15"/>
        <rect x="0" y="0" width="68" height="76" rx="14" fill="none" stroke="#ffffff" stroke-opacity="0.2"/>
        <g transform="translate(24, 16)">
          <rect x="0" y="6" width="20" height="24" rx="5" fill="#ffffff"/>
          <rect x="2" y="8" width="16" height="20" rx="3" fill="url(#phoneScreenBg)"/>
          <rect x="3" y="0" width="14" height="6" rx="2" fill="url(#watchCase)"/>
          <rect x="3" y="30" width="14" height="6" rx="2" fill="url(#watchCase)"/>
        </g>
        <rect x="14" y="54" width="40" height="4" rx="2" fill="#ffffff" opacity="0.6"/>
        <rect x="20" y="62" width="28" height="3" rx="1.5" fill="#ffffff" opacity="0.3"/>

        <rect x="79" y="0" width="68" height="76" rx="14" fill="#ffffff" fill-opacity="0.15"/>
        <rect x="79" y="0" width="68" height="76" rx="14" fill="none" stroke="#ffffff" stroke-opacity="0.2"/>
        <g transform="translate(95, 22)">
          <rect x="0" y="2" width="36" height="22" rx="3" fill="#ffffff"/>
          <circle cx="18" cy="13" r="7" fill="#1a1f2e"/>
          <circle cx="18" cy="13" r="4" fill="#5fa8ff"/>
          <rect x="2" y="0" width="8" height="3" rx="1" fill="#ffffff"/>
        </g>
        <rect x="93" y="54" width="40" height="4" rx="2" fill="#ffffff" opacity="0.6"/>
        <rect x="99" y="62" width="28" height="3" rx="1.5" fill="#ffffff" opacity="0.3"/>

        <rect x="158" y="0" width="68" height="76" rx="14" fill="#ffffff" fill-opacity="0.15"/>
        <rect x="158" y="0" width="68" height="76" rx="14" fill="none" stroke="#ffffff" stroke-opacity="0.2"/>
        <g transform="translate(184, 28)">
          <circle cx="0" cy="6" r="3" fill="#ffffff"/>
          <circle cx="8" cy="6" r="3" fill="#ffffff"/>
          <circle cx="16" cy="6" r="3" fill="#ffffff"/>
        </g>
        <rect x="172" y="54" width="40" height="4" rx="2" fill="#ffffff" opacity="0.6"/>
      </g>
    </g>

    <!-- Bottom navigation -->
    <g transform="translate(36, 600)">
      <rect x="0" y="0" width="226" height="42" rx="21" fill="#ffffff" fill-opacity="0.12"/>
      <rect x="0" y="0" width="226" height="42" rx="21" fill="none" stroke="#ffffff" stroke-opacity="0.15"/>
      <circle cx="30" cy="21" r="14" fill="url(#watchCase)"/>
      <path d="M 24 21 L 28 25 L 36 17" stroke="#ffffff" stroke-width="2.5" fill="none" stroke-linecap="round" stroke-linejoin="round"/>
      <rect x="80" y="13" width="14" height="14" rx="2" fill="none" stroke="#ffffff" stroke-width="1.5" opacity="0.6"/>
      <circle cx="130" cy="21" r="7" fill="none" stroke="#ffffff" stroke-width="1.5" opacity="0.6"/>
      <path d="M 174 15 L 186 15 M 174 21 L 186 21 M 174 27 L 186 27" stroke="#ffffff" stroke-width="1.5" stroke-linecap="round" opacity="0.6"/>
    </g>

    <!-- Glass reflection overlay -->
    <path d="M 19 19 L 168 19 L 95 660 L 19 660 Z" fill="url(#phoneGlassReflection)" opacity="0.6"/>
    <rect x="9" y="98" width="3" height="115" rx="1.5" fill="url(#phoneEdgeShine)" opacity="0.7"/>
    <rect x="288" y="195" width="3" height="76" rx="1.5" fill="url(#phoneEdgeShine)" opacity="0.5"/>

    <!-- Side buttons -->
    <rect x="-3" y="170" width="3" height="48" rx="1.5" fill="#0a0e1a"/>
    <rect x="-3" y="248" width="3" height="76" rx="1.5" fill="#0a0e1a"/>
    <rect x="300" y="208" width="3" height="96" rx="1.5" fill="#0a0e1a"/>
  </g>

  <!-- ====================== APPLE WATCH (Right) ====================== -->
  <g transform="translate(870, 320) rotate(8)">
    <ellipse cx="80" cy="380" rx="78" ry="11" fill="#000000" opacity="0.6"/>

    <g filter="url(#cinematicShadow)">
      <path d="M 30 0 L 130 0 L 138 88 L 22 88 Z" fill="url(#watchBand)"/>
      <rect x="35" y="10" width="90" height="3" rx="1" fill="#ffffff" opacity="0.1"/>
      <rect x="35" y="20" width="90" height="3" rx="1" fill="#ffffff" opacity="0.05"/>
      <rect x="35" y="30" width="90" height="3" rx="1" fill="#ffffff" opacity="0.1"/>
      <rect x="35" y="40" width="90" height="3" rx="1" fill="#ffffff" opacity="0.05"/>
      <rect x="40" y="0" width="80" height="8" rx="2" fill="#0a0e1a" opacity="0.5"/>
    </g>

    <g filter="url(#cinematicShadow)">
      <rect x="0" y="78" width="160" height="200" rx="40" fill="url(#watchCaseTop)"/>
      <rect x="6" y="84" width="148" height="188" rx="36" fill="url(#watchCase)"/>
      <rect x="14" y="92" width="132" height="172" rx="30" fill="#0a0e1a"/>
      <rect x="20" y="98" width="120" height="160" rx="26" fill="url(#watchScreen)"/>
    </g>

    <text x="80" y="158" text-anchor="middle" font-family="Arial, sans-serif" font-size="40" font-weight="900" fill="#ffffff">9:41</text>

    <g transform="translate(80, 198)">
      <circle cx="0" cy="0" r="22" fill="none" stroke="#1a1f2e" stroke-width="6"/>
      <circle cx="0" cy="0" r="22" fill="none" stroke="#f47920" stroke-width="6" stroke-dasharray="100 138" stroke-linecap="round" transform="rotate(-90)"/>
      <circle cx="0" cy="0" r="14" fill="none" stroke="#1a1f2e" stroke-width="5"/>
      <circle cx="0" cy="0" r="14" fill="none" stroke="#5fa8ff" stroke-width="5" stroke-dasharray="60 88" stroke-linecap="round" transform="rotate(-90)"/>
    </g>

    <g transform="translate(30, 233)">
      <rect x="0" y="0" width="40" height="3" rx="1.5" fill="#ffffff" opacity="0.6"/>
      <rect x="0" y="7" width="28" height="3" rx="1.5" fill="#f47920" opacity="0.8"/>
      <rect x="60" y="0" width="40" height="3" rx="1.5" fill="#ffffff" opacity="0.6"/>
      <rect x="60" y="7" width="32" height="3" rx="1.5" fill="#5fa8ff" opacity="0.8"/>
    </g>

    <path d="M 20 98 L 100 98 L 60 258 L 20 258 Z" fill="url(#phoneGlassReflection)" opacity="0.5"/>

    <rect x="155" y="148" width="10" height="24" rx="2" fill="url(#watchCase)"/>
    <rect x="156" y="150" width="8" height="20" rx="1" fill="none" stroke="#0a0e1a" stroke-width="0.5" opacity="0.5"/>
    <rect x="155" y="184" width="8" height="14" rx="2" fill="url(#watchCase)"/>

    <g filter="url(#cinematicShadow)">
      <path d="M 22 268 L 138 268 L 130 358 L 30 358 Z" fill="url(#watchBand)"/>
      <rect x="35" y="278" width="90" height="3" rx="1" fill="#ffffff" opacity="0.1"/>
      <rect x="35" y="288" width="90" height="3" rx="1" fill="#ffffff" opacity="0.05"/>
      <rect x="35" y="298" width="90" height="3" rx="1" fill="#ffffff" opacity="0.1"/>
      <rect x="35" y="308" width="90" height="3" rx="1" fill="#ffffff" opacity="0.05"/>
      <ellipse cx="60" cy="338" rx="3" ry="5" fill="#0a0e1a" opacity="0.6"/>
      <ellipse cx="80" cy="338" rx="3" ry="5" fill="#0a0e1a" opacity="0.6"/>
      <ellipse cx="100" cy="338" rx="3" ry="5" fill="#0a0e1a" opacity="0.6"/>
    </g>
  </g>

  <!-- ====================== DECORATIVE FLOATING ELEMENTS ====================== -->
  <g opacity="0.8">
    <g transform="translate(380, 130)">
      <polygon points="0,15 15,8 30,15 30,30 15,38 0,30" fill="url(#watchCase)" opacity="0.4"/>
      <polygon points="15,8 30,15 30,30 15,23" fill="url(#watchCase)" opacity="0.6"/>
      <polygon points="0,15 15,8 15,23 0,30" fill="url(#watchCase)" opacity="0.3"/>
    </g>
    <g transform="translate(820, 760)">
      <polygon points="0,15 15,8 30,15 30,30 15,38 0,30" fill="#5fa8ff" opacity="0.4"/>
      <polygon points="15,8 30,15 30,30 15,23" fill="#5fa8ff" opacity="0.6"/>
      <polygon points="0,15 15,8 15,23 0,30" fill="#5fa8ff" opacity="0.3"/>
    </g>
  </g>

  <g>
    <circle cx="430" cy="100" r="6" fill="#f47920"/>
    <circle cx="430" cy="100" r="13" fill="none" stroke="#f47920" stroke-width="1.5" opacity="0.5"/>
    <circle cx="430" cy="100" r="20" fill="none" stroke="#f47920" stroke-width="1" opacity="0.25"/>
    <circle cx="800" cy="130" r="5" fill="#5fa8ff"/>
    <circle cx="800" cy="130" r="11" fill="none" stroke="#5fa8ff" stroke-width="1.5" opacity="0.5"/>
    <circle cx="320" cy="800" r="4" fill="#f47920"/>
    <circle cx="320" cy="800" r="10" fill="none" stroke="#f47920" stroke-width="1.5" opacity="0.4"/>
    <circle cx="1100" cy="80" r="4" fill="#ffffff" opacity="0.8"/>
    <circle cx="1100" cy="80" r="10" fill="none" stroke="#ffffff" stroke-width="1" opacity="0.3"/>
  </g>

  <g fill="#ffffff" opacity="0.7">
    <path d="M 480 250 L 483 257 L 490 257 L 485 262 L 487 269 L 480 265 L 473 269 L 475 262 L 470 257 L 477 257 Z"/>
    <path d="M 760 600 L 762 605 L 767 605 L 763 608 L 765 613 L 760 610 L 755 613 L 757 608 L 753 605 L 758 605 Z"/>
  </g>
  <g fill="#f47920" opacity="0.8">
    <path d="M 720 280 L 723 287 L 730 287 L 725 292 L 727 299 L 720 295 L 713 299 L 715 292 L 710 287 L 717 287 Z"/>
  </g>

  <g fill="none" stroke="#5fa8ff" stroke-width="2" opacity="0.4" stroke-linecap="round">
    <path d="M 60 140 Q 80 120 100 140 T 140 140" stroke-dasharray="2 4"/>
    <path d="M 1080 540 Q 1100 520 1120 540 T 1160 540" stroke-dasharray="2 4"/>
  </g>

  <g stroke="#ffffff" stroke-width="1.5" stroke-linecap="round" opacity="0.5">
    <line x1="350" y1="70" x2="360" y2="70"/>
    <line x1="355" y1="65" x2="355" y2="75"/>
    <line x1="1020" y1="850" x2="1030" y2="850"/>
    <line x1="1025" y1="845" x2="1025" y2="855"/>
  </g>

  <rect width="1200" height="900" fill="url(#vignette)"/>
</svg>
